<?xml version="1.0" standalone="no"?>
<!DOCTYPE svg PUBLIC "-//W3C//DTD SVG 20010904//EN"
 "http://www.w3.org/TR/2001/REC-SVG-20010904/DTD/svg10.dtd">
<svg version="1.0" xmlns="http://www.w3.org/2000/svg"
 width="2000.000000pt" height="2000.000000pt" viewBox="0 0 2000.000000 2000.000000"
 preserveAspectRatio="xMidYMid meet">

<g transform="translate(0.000000,2000.000000) scale(0.100000,-0.100000)"
fill="#000000" stroke="none">
<path d="M0 10000 l0 -10000 10000 0 10000 0 0 10000 0 10000 -10000 0 -10000
0 0 -10000z m6697 8424 c2 -5 -22 -22 -52 -38 l-54 -28 -128 -257 c-197 -396
-256 -542 -434 -1071 -129 -383 -199 -625 -199 -691 0 -18 2 -19 30 -4 39 20
82 63 97 98 10 21 19 27 43 27 36 0 102 56 130 109 34 67 108 119 141 98 15
-9 22 -7 39 11 11 12 31 22 44 22 14 0 30 10 40 26 24 36 70 31 74 -8 6 -51
31 -27 47 45 5 25 8 27 39 22 37 -7 44 -1 61 50 9 26 15 30 45 30 30 0 37 5
52 38 20 40 27 44 47 25 10 -11 16 -9 29 10 49 67 49 67 65 54 20 -17 40 -7
61 29 13 22 23 28 37 24 13 -4 27 2 44 21 20 22 27 24 40 14 12 -10 19 -8 41
9 15 12 35 21 46 21 11 0 28 4 38 10 10 5 26 7 34 4 32 -12 15 -34 -47 -62
-73 -33 -90 -51 -251 -247 -193 -234 -489 -656 -502 -713 -3 -15 -14 -56 -25
-92 -17 -59 -59 -258 -59 -281 0 -23 29 -6 35 20 5 24 12 30 38 33 27 3 33 8
40 41 9 36 11 37 41 31 36 -6 53 7 65 53 5 18 15 29 30 31 12 2 26 14 31 28 8
20 14 23 35 18 22 -5 26 -2 31 26 6 28 10 31 34 28 24 -4 31 1 44 29 15 31 36
45 36 23 0 -20 31 -9 40 14 11 29 32 44 38 28 7 -21 22 -13 44 23 20 35 21 35
41 18 19 -17 20 -17 31 0 30 49 31 50 55 36 20 -12 24 -12 36 5 8 10 16 23 18
29 2 6 12 4 25 -4 19 -12 24 -11 44 9 15 13 31 19 44 16 12 -3 26 1 33 10 15
18 62 21 78 5 8 -8 16 -5 30 10 16 18 24 19 55 11 59 -17 60 -49 5 -87 -44
-30 -50 -29 -42 8 6 28 5 30 -12 21 -39 -22 -85 -62 -228 -197 -161 -152 -395
-388 -408 -410 -4 -8 -1 -20 9 -29 21 -21 52 -5 66 35 8 24 13 27 28 19 15 -8
24 -5 43 16 21 22 28 24 45 15 18 -10 26 -7 51 18 20 19 37 28 49 24 13 -3 25
3 36 18 13 20 24 23 65 21 33 -1 53 3 61 13 7 9 21 13 31 10 10 -4 27 -1 38 4
24 13 117 -14 125 -36 4 -10 1 -13 -12 -9 -74 20 -80 19 -153 -31 -80 -54
-288 -264 -337 -339 -17 -27 -36 -54 -42 -61 -11 -14 -13 -33 -4 -33 4 0 12 8
19 17 11 14 15 15 28 4 13 -10 18 -9 29 8 12 19 13 19 31 3 15 -13 20 -14 26
-3 5 8 17 11 29 7 11 -4 23 -2 27 4 10 17 25 11 25 -9 0 -17 6 -19 48 -16 36
2 51 -1 65 -16 13 -14 32 -19 70 -19 76 -1 129 -10 144 -26 18 -17 17 -18 56
3 18 10 41 18 52 18 39 3 131 17 168 26 83 22 50 -6 -92 -77 -216 -107 -409
-257 -521 -407 -30 -40 -40 -61 -33 -68 12 -12 53 5 53 21 0 6 18 10 40 10 27
0 43 5 46 15 4 8 19 15 34 15 16 0 32 5 35 10 3 6 17 10 30 10 13 0 26 4 29 9
3 5 23 11 43 15 21 3 55 8 77 12 55 9 44 -11 -35 -63 -124 -82 -181 -129 -235
-192 -29 -35 -51 -67 -49 -71 3 -4 42 -11 87 -15 73 -6 129 -16 373 -69 60
-13 140 -40 311 -102 251 -92 564 -259 824 -440 259 -180 623 -514 851 -780
574 -668 990 -1483 1235 -2422 20 -78 35 -144 33 -146 -11 -10 -5377 -1678
-5454 -1695 -82 -18 -186 -47 -305 -84 -25 -8 -85 -31 -135 -52 -75 -31 -485
-165 -507 -165 -25 0 -198 528 -271 825 -127 518 -179 950 -176 1465 4 643
105 1206 313 1745 25 66 44 125 42 132 -3 6 2 17 10 24 27 22 165 309 152 314
-7 2 -45 6 -84 10 -128 11 -317 -22 -516 -91 -109 -38 -153 -62 -205 -114 -18
-18 -33 -27 -33 -21 0 7 11 23 25 37 14 14 25 33 25 44 0 10 17 32 37 49 l37
31 -3 74 c-2 63 1 76 16 87 29 21 36 38 23 54 -10 12 -7 17 15 25 20 8 25 15
20 29 -5 16 0 20 22 23 22 2 29 9 31 30 2 20 10 28 33 33 20 5 31 14 35 31 4
17 13 24 31 24 16 0 27 7 30 20 3 12 14 20 27 20 26 0 41 10 49 34 5 12 14 17
28 13 13 -3 28 2 40 14 10 10 26 19 34 19 18 0 108 42 117 55 4 5 6 30 5 55
l-2 45 -105 42 c-122 49 -197 65 -406 89 l-152 16 -55 -26 c-67 -31 -91 -27
-82 16 6 24 2 35 -21 59 -23 24 -25 31 -14 44 7 8 23 15 36 15 50 0 29 37 -33
58 -26 9 -36 8 -48 -4 -8 -9 -15 -20 -15 -26 0 -24 24 -94 38 -111 19 -21 9
-32 -35 -40 -42 -8 -57 11 -48 60 3 21 12 49 19 62 12 21 11 29 -5 55 -25 41
-24 59 6 94 29 34 31 48 10 56 -27 10 -16 25 22 28 31 2 39 7 41 26 3 22 6 23
58 16 51 -6 54 -5 64 20 11 30 12 30 58 14 32 -12 35 -11 57 16 19 24 26 26
43 17 28 -15 42 -14 42 3 0 26 23 35 50 21 21 -11 27 -11 42 2 14 12 22 13 52
2 28 -10 38 -10 50 0 21 18 20 37 -1 47 -10 5 -232 9 -493 9 -261 0 -480 3
-486 7 -20 13 -26 86 -9 118 21 41 30 43 30 7 0 -30 2 -32 43 -35 37 -3 42 -1
42 18 0 18 5 21 33 18 27 -3 33 1 35 20 3 18 9 23 27 20 15 -2 29 4 37 15 11
15 18 16 41 8 36 -14 59 -4 51 22 -6 18 -3 19 22 12 50 -14 79 -12 79 7 0 28
12 31 49 13 44 -21 70 -16 74 13 4 26 8 26 42 7 34 -20 49 -18 58 4 7 19 9 19
41 4 26 -13 37 -14 52 -5 14 9 25 9 45 0 22 -10 28 -10 32 0 5 15 34 16 49 1
8 -8 17 -8 33 1 18 9 28 9 46 0 19 -11 26 -11 39 0 12 10 21 10 44 0 17 -6 36
-8 43 -4 16 10 98 12 104 2 7 -11 42 -10 49 1 3 6 -42 58 -101 117 l-105 107
-192 -7 c-106 -4 -237 -11 -293 -16 -113 -10 -302 -46 -321 -61 -7 -6 -9 -24
-6 -45 9 -53 -14 -42 -43 21 -26 55 -25 95 0 95 8 0 19 7 26 15 7 8 21 15 32
15 10 0 18 6 16 13 -5 20 41 58 65 55 16 -2 22 2 20 16 -2 31 36 55 69 44 21
-8 31 -6 43 6 12 11 22 13 33 7 12 -6 24 -5 36 5 13 9 24 10 37 4 12 -7 20 -6
25 1 4 6 20 8 40 4 19 -3 34 -2 34 3 0 6 6 9 13 9 6 -1 38 2 70 7 41 5 68 4
88 -5 16 -6 33 -9 37 -5 10 10 -28 37 -143 101 -55 30 -131 74 -169 96 -38 22
-144 79 -235 126 -91 47 -199 105 -238 129 -40 24 -77 44 -82 44 -5 0 -14 6
-20 14 -9 11 -8 18 4 30 9 9 21 16 26 16 6 0 17 7 26 15 14 14 17 14 34 -1 18
-16 29 -15 61 8 13 10 22 9 42 -1 30 -16 56 -8 63 19 6 24 12 25 41 4 24 -16
71 -16 75 1 2 11 -63 45 -308 162 -351 167 -448 213 -599 279 -88 38 -173 82
-190 98 -17 16 -50 37 -73 48 -36 16 -42 23 -49 61 -8 40 -8 76 0 85 11 10 46
-26 46 -46 0 -21 3 -23 29 -17 24 5 30 2 36 -14 8 -25 41 -28 66 -5 17 15 20
14 48 -5 38 -27 76 -27 95 0 l15 22 31 -27 c38 -31 75 -34 90 -6 14 26 20 25
60 -10 18 -16 37 -30 41 -30 21 0 39 14 39 31 0 17 3 18 23 8 12 -6 31 -23 42
-36 21 -26 55 -24 55 3 0 25 33 15 70 -21 37 -36 70 -40 70 -9 0 26 33 14 70
-26 42 -45 71 -51 95 -17 l16 22 42 -48 c34 -38 48 -47 75 -47 20 0 35 6 38
15 10 25 27 17 56 -25 27 -40 64 -57 94 -46 13 5 14 14 9 48 -6 33 -20 53 -69
102 -34 34 -78 70 -97 81 -33 20 -48 53 -20 47 14 -3 41 15 41 29 0 11 -123
106 -340 262 -121 87 -123 88 -271 180 -52 31 -103 63 -114 70 -67 41 -105 69
-105 77 0 10 91 -15 135 -38 16 -8 45 -14 64 -14 25 1 41 -5 58 -24 19 -21 29
-24 54 -19 27 6 35 3 53 -20 20 -25 24 -26 45 -14 20 13 24 12 45 -13 22 -28
46 -37 46 -18 0 23 29 8 48 -25 22 -37 66 -55 85 -36 17 17 21 14 56 -35 31
-42 34 -44 51 -29 23 21 43 11 69 -35 24 -43 53 -52 69 -23 8 14 14 10 37 -26
22 -32 32 -40 47 -35 15 4 31 -7 65 -43 l45 -48 -6 34 c-3 18 -6 41 -6 51 0 9
-18 38 -41 64 -22 25 -39 52 -36 58 6 18 -26 78 -57 107 -14 14 -26 35 -26 48
0 30 -14 58 -51 101 -16 18 -29 43 -29 56 0 13 -25 72 -55 131 -30 58 -55 114
-55 124 0 10 -8 29 -19 42 -10 13 -31 51 -46 84 -15 33 -34 67 -41 75 -16 20
-104 189 -104 202 0 5 -11 24 -25 42 -26 35 -32 61 -15 71 6 4 44 -10 84 -29
40 -20 80 -36 89 -36 8 0 20 -7 27 -15 8 -9 26 -15 47 -13 25 2 37 -4 49 -20
11 -16 22 -20 39 -16 18 4 27 0 41 -21 15 -23 22 -26 50 -20 29 5 35 2 49 -25
15 -30 47 -40 60 -20 10 15 24 3 40 -36 16 -38 26 -42 49 -18 20 19 31 12 56
-36 11 -22 30 -45 42 -51 18 -10 24 -8 40 12 18 24 19 24 33 5 8 -11 15 -30
15 -43 0 -26 32 -63 55 -63 9 0 19 10 23 21 8 20 9 20 25 5 9 -9 22 -36 28
-59 6 -23 18 -50 26 -59 20 -22 63 -24 63 -3 0 41 44 -4 54 -54 10 -57 58 -93
72 -56 4 8 12 15 20 15 16 0 29 -23 38 -69 3 -19 14 -43 23 -53 20 -22 59 -24
67 -3 7 20 32 19 40 -1 3 -9 6 -31 6 -49 0 -18 8 -43 18 -55 16 -19 22 -21 40
-11 12 6 22 17 22 24 1 27 30 -29 30 -58 0 -19 8 -39 20 -50 19 -17 19 -17 10
14 -5 20 -5 33 2 37 6 4 8 23 5 43 -3 23 1 44 9 56 9 12 12 31 8 52 -3 18 -2
39 3 46 6 6 10 56 9 110 -1 53 2 97 6 97 4 0 21 -19 37 -42 17 -24 41 -54 55
-66 27 -25 31 -22 38 23 2 12 12 21 25 23 30 4 40 54 19 87 -23 35 -21 71 5
78 22 6 22 8 3 120 -5 31 -3 37 11 37 14 0 16 6 10 38 -6 35 -3 41 21 57 25
16 26 21 21 69 -4 45 -2 54 15 65 16 10 19 20 15 47 -5 28 -1 39 20 58 22 21
25 30 20 64 -6 31 -3 43 13 57 13 12 20 31 20 56 0 21 5 41 10 44 6 3 10 32
11 63 0 61 13 109 22 82 2 -8 22 -87 44 -175 22 -88 50 -194 61 -235 37 -130
81 -293 93 -340 25 -97 63 -216 75 -230 6 -8 15 -41 19 -73 5 -41 12 -61 26
-70 11 -7 22 -28 26 -49 4 -28 10 -38 24 -38 15 0 19 -8 19 -39 0 -40 13 -61
25 -41 3 5 15 10 25 10 28 0 37 45 16 80 -20 35 -21 74 -1 90 23 19 18 46 -15
83 -16 19 -34 46 -40 62 -10 25 -9 27 10 22 14 -4 25 2 36 19 15 22 14 26 -10
68 -31 54 -33 76 -6 76 12 0 25 10 32 25 10 21 8 32 -10 64 -28 49 -28 69 -1
73 39 6 46 32 21 81 -26 52 -27 61 -8 54 8 -3 22 0 32 8 16 11 17 18 8 55 -9
33 -9 44 3 56 8 7 18 14 23 14 15 0 21 36 11 64 -9 22 -7 28 14 42 32 21 31
31 -1 65 -26 27 -25 49 2 49 21 0 17 31 -6 37 -11 3 -20 12 -20 20 0 19 -43
81 -69 99 -12 9 -21 22 -21 30 0 19 58 -12 124 -66 24 -20 58 -43 74 -49 30
-12 30 -14 35 -104 3 -51 10 -130 16 -177 6 -47 18 -155 27 -240 8 -85 17
-168 18 -185 13 -126 20 -166 29 -172 6 -4 13 -1 15 5 2 7 13 10 28 6 17 -4
31 0 45 12 18 16 20 27 15 74 -7 64 4 91 28 71 11 -9 20 -10 35 -1 31 16 41
43 35 96 -4 36 -1 54 10 69 8 11 16 14 16 8 0 -18 30 -16 52 4 13 11 18 30 18
65 0 27 5 58 11 69 10 19 12 20 29 4 17 -16 20 -15 39 4 12 12 21 32 21 45 0
18 11 30 43 48 38 21 42 27 43 63 2 68 2 68 33 62 17 -4 36 0 49 9 24 17 86
108 97 142 4 16 14 22 34 22 30 0 51 16 51 40 0 9 6 25 14 35 11 16 16 17 29
6 13 -10 17 -9 26 8 6 11 11 27 11 35 0 9 6 17 13 17 6 1 19 2 27 3 8 0 17 12
20 26 5 20 11 24 32 22 18 -2 32 5 48 25 22 28 117 84 134 79 6 -1 11 -6 13
-12z m8823 -1694 c249 -50 526 -170 835 -363 418 -260 799 -564 1202 -961 711
-698 1121 -1346 1054 -1667 -79 -383 -416 -825 -1016 -1330 -791 -666 -2079
-1402 -3285 -1876 -118 -47 -219 -88 -223 -93 -5 -4 7 -17 26 -29 47 -29 130
-119 158 -172 20 -37 24 -58 24 -139 0 -86 -3 -101 -30 -154 -16 -32 -59 -88
-95 -125 -144 -146 -350 -218 -510 -177 -77 20 -131 54 -264 167 -185 158
-171 142 -159 175 24 68 -33 121 -101 96 -35 -14 39 -82 -706 648 -530 519
-709 693 -833 807 l-78 72 12 36 c11 31 11 40 -2 63 -21 39 -63 51 -101 29
-30 -17 -30 -17 -67 13 -20 17 -89 74 -154 126 -160 130 -221 187 -282 264
-100 126 -142 236 -131 342 14 140 134 249 320 293 89 21 247 19 338 -4 75
-19 191 -71 203 -91 14 -22 32 -7 74 63 151 246 552 850 785 1184 28 40 74
105 101 145 28 39 116 163 196 273 1084 1496 1896 2305 2404 2395 79 14 203
10 305 -10z m-3500 -7040 c36 -36 24 -95 -24 -115 -75 -32 -140 53 -84 112 27
29 80 31 108 3z m-1785 -125 c14 -13 25 -36 25 -50 0 -34 -42 -75 -76 -75 -37
0 -74 36 -74 72 0 36 40 78 75 78 14 0 37 -11 50 -25z m-3345 -1085 c856 -36
1685 -168 2485 -395 480 -137 827 -266 1155 -430 509 -254 793 -518 807 -750
6 -87 -68 -556 -97 -622 -22 -49 -106 -142 -167 -184 -392 -271 -1325 -385
-2433 -298 -1101 86 -2248 352 -3080 715 -157 68 -406 203 -540 292 -196 130
-348 279 -408 399 -24 49 -43 104 -47 135 -9 75 74 586 104 646 177 347 1059
542 2221 492z m3099 -76 c27 -34 26 -57 -1 -88 -48 -53 -128 -25 -128 44 0 67
88 96 129 44z m1831 -44 c58 -58 -10 -147 -87 -115 -74 31 -50 135 32 135 22
0 43 -8 55 -20z m-6849 -2096 c381 -212 879 -408 1404 -554 83 -23 179 -50
215 -60 164 -47 612 -145 890 -194 747 -132 1585 -196 2192 -168 395 18 800
72 1048 138 119 32 286 88 353 119 28 13 53 23 54 21 10 -10 -128 -325 -233
-531 -219 -432 -472 -784 -794 -1106 -194 -194 -354 -327 -541 -448 -115 -76
-124 -80 -127 -59 -4 26 -39 68 -57 68 -6 0 -19 10 -30 23 -30 35 -204 233
-298 339 l-87 97 343 289 c376 319 341 298 410 236 17 -16 88 -76 157 -134 69
-57 127 -107 130 -110 3 -3 33 -29 68 -58 70 -58 108 -66 142 -32 28 28 27 85
-3 113 -13 12 -116 100 -230 196 -114 96 -206 177 -205 181 2 4 82 74 178 155
96 81 181 155 188 164 37 46 -16 131 -72 117 -14 -3 -114 -81 -221 -172 -173
-146 -198 -164 -213 -152 -9 7 -57 47 -106 88 -295 249 -310 260 -342 260 -60
0 -95 -74 -56 -118 9 -11 100 -91 202 -177 102 -85 185 -161 185 -167 0 -7
-47 -52 -105 -101 -58 -49 -127 -108 -155 -131 -198 -171 -389 -326 -397 -324
-4 2 -163 179 -352 393 l-344 390 29 29 c79 78 -14 183 -99 111 -23 -19 -36
-23 -65 -18 -48 7 -91 -32 -85 -78 4 -27 -10 -42 -230 -232 -130 -111 -243
-207 -252 -214 -14 -10 -22 -5 -50 35 -18 26 -132 188 -253 360 -120 172 -227
317 -237 322 -30 16 -62 12 -87 -12 -38 -36 -30 -69 45 -176 38 -53 113 -160
167 -237 54 -77 140 -200 192 -273 l93 -132 -38 -33 c-50 -45 -256 -222 -366
-316 -126 -106 -126 -107 -126 -146 0 -43 29 -75 69 -75 28 0 79 36 186 131
149 133 359 308 366 304 6 -5 340 -477 613 -868 49 -71 99 -133 112 -139 27
-12 66 -4 88 18 36 35 21 72 -101 244 -64 91 -206 293 -316 450 -110 157 -217
308 -238 337 -22 29 -39 57 -39 62 0 13 489 436 504 436 7 0 133 -137 281
-305 148 -168 272 -307 275 -310 18 -17 140 -159 140 -164 0 -3 -102 -91 -227
-197 -126 -105 -240 -202 -255 -215 -57 -49 -26 -134 47 -134 28 0 46 9 83 43
43 39 154 134 376 320 l81 67 30 -32 c17 -18 113 -127 214 -241 101 -115 194
-213 207 -217 13 -5 24 -13 24 -18 0 -11 -159 -86 -287 -136 -529 -207 -1059
-238 -1598 -96 -375 99 -744 292 -1075 564 -130 106 -415 397 -522 531 -322
406 -591 904 -770 1425 -41 121 -132 438 -158 550 -11 52 -23 103 -26 113 -3
9 -3 17 -1 17 3 0 42 -21 88 -46z"/>
<path d="M6270 16505 c-7 -8 -10 -19 -6 -22 9 -9 38 8 38 22 -1 16 -18 16 -32
0z"/>
<path d="M6182 16418 c-7 -7 -12 -16 -12 -20 0 -12 28 -10 36 3 10 17 -10 31
-24 17z"/>
<path d="M6103 16335 c-3 -9 -3 -18 0 -21 9 -9 27 6 27 22 0 19 -19 18 -27 -1z"/>
<path d="M6025 16228 c-9 -14 -11 -24 -5 -26 14 -5 40 17 40 34 0 21 -17 17
-35 -8z"/>
<path d="M3476 16025 c8 -20 41 -38 55 -29 14 9 -19 44 -42 44 -12 0 -16 -5
-13 -15z"/>
<path d="M6630 15565 c-7 -9 -10 -18 -7 -21 10 -11 37 5 37 21 0 19 -14 19
-30 0z"/>
<path d="M7258 15239 c-10 -6 -18 -14 -18 -19 0 -14 37 -12 46 1 10 17 -9 29
-28 18z"/>
<path d="M7170 15204 c0 -17 22 -14 28 4 2 7 -3 12 -12 12 -9 0 -16 -7 -16
-16z"/>
<path d="M7073 15185 c-36 -15 -42 -32 -17 -42 24 -9 64 14 64 37 0 23 -4 24
-47 5z"/>
<path d="M6978 15149 c-20 -11 -24 -34 -8 -44 15 -9 40 14 40 36 0 21 -7 23
-32 8z"/>
<path d="M7925 13820 c-29 -11 -44 -32 -112 -150 -33 -58 -112 -196 -177 -307
l-117 -201 -137 63 c-75 34 -182 84 -237 110 -55 26 -143 66 -195 90 -52 23
-157 72 -234 109 -157 75 -203 83 -230 41 -21 -32 -20 -68 2 -93 9 -11 116
-65 237 -120 406 -186 700 -323 707 -330 8 -8 -593 -1054 -608 -1059 -7 -2
-940 528 -1011 574 -9 6 5 50 51 163 216 529 216 529 178 563 -25 22 -85 22
-104 0 -9 -10 -39 -76 -68 -148 -29 -71 -86 -211 -126 -310 -40 -99 -76 -179
-81 -178 -5 1 -35 17 -68 36 -151 86 -267 154 -351 203 -102 60 -148 69 -179
34 -24 -26 -23 -76 1 -99 10 -11 134 -85 274 -166 140 -80 258 -150 262 -154
7 -6 -52 -157 -225 -581 -30 -74 -103 -254 -162 -400 -59 -146 -111 -269 -115
-274 -7 -7 -645 323 -783 405 -53 32 -107 38 -131 13 -22 -22 -30 -61 -18 -88
9 -20 196 -124 782 -434 47 -25 87 -46 88 -48 2 -1 -39 -107 -91 -236 -52
-128 -132 -323 -176 -432 -44 -109 -82 -201 -84 -203 -2 -1 -79 33 -171 78
-135 64 -174 79 -197 74 -31 -7 -59 -39 -59 -67 0 -48 21 -64 188 -142 92 -43
170 -81 174 -85 8 -7 -2 -33 -102 -271 -28 -69 -54 -133 -57 -142 -22 -72 86
-125 134 -66 7 7 23 43 36 78 13 36 48 124 78 197 45 110 57 132 72 127 9 -3
99 -45 200 -93 100 -49 229 -111 287 -138 58 -28 131 -63 163 -78 l57 -27 -18
-32 c-138 -231 -152 -257 -152 -288 0 -41 8 -54 42 -67 51 -19 82 2 129 87 37
68 126 221 135 231 1 2 74 -32 161 -74 177 -86 229 -99 262 -66 21 21 27 55
14 87 -3 9 -84 54 -184 103 l-177 86 110 190 c61 105 160 276 221 380 60 105
111 192 113 194 3 4 729 -381 758 -402 19 -14 17 -20 -58 -147 -65 -111 -77
-138 -72 -163 3 -16 14 -36 24 -43 20 -16 66 -18 91 -5 9 6 51 69 92 140 41
72 79 131 84 131 6 0 52 -23 104 -50 51 -28 103 -50 115 -50 30 0 63 25 70 54
12 49 -8 71 -111 127 -54 28 -100 54 -102 55 -2 2 26 54 62 116 36 62 145 250
243 418 97 168 211 364 252 435 41 72 76 131 77 132 2 4 796 -454 807 -465 7
-7 -28 -92 -148 -356 -71 -156 -70 -204 4 -223 54 -13 68 8 177 255 56 128
105 235 108 238 3 3 92 -45 199 -107 106 -62 205 -119 221 -126 41 -22 82 -9
102 33 29 61 15 74 -230 214 -120 70 -220 131 -222 136 -3 10 55 144 357 829
32 72 90 204 130 295 39 91 75 168 78 172 4 4 56 -15 116 -42 60 -28 121 -50
137 -50 56 0 89 68 56 114 -8 11 -65 42 -128 71 -65 30 -113 58 -111 65 1 7
46 110 99 229 52 119 98 230 100 248 10 62 -67 106 -116 66 -17 -15 -92 -174
-203 -435 -12 -27 -24 -48 -29 -48 -8 0 -168 72 -370 168 -68 32 -163 76 -211
97 -49 22 -88 43 -88 48 0 5 75 138 167 295 217 373 208 355 193 393 -22 53
-72 64 -114 27 -14 -13 -104 -160 -201 -328 -97 -168 -181 -309 -186 -314 -5
-6 -83 25 -196 77 -371 170 -608 280 -612 283 -2 1 24 49 56 106 33 57 115
197 182 313 126 218 139 256 104 287 -24 21 -54 28 -78 18z m-219 -911 c228
-107 285 -133 477 -221 152 -70 197 -95 194 -107 -2 -9 -82 -151 -179 -316
-96 -165 -241 -416 -324 -557 -105 -182 -153 -256 -163 -253 -26 10 -751 430
-751 436 0 3 64 115 143 250 78 135 216 374 307 532 91 157 170 287 176 287 6
0 60 -23 120 -51z m970 -450 c71 -33 222 -103 337 -156 114 -52 207 -97 207
-98 0 -4 -122 -284 -290 -665 -62 -140 -134 -304 -160 -365 -26 -60 -64 -145
-83 -187 l-36 -78 -253 146 c-139 81 -317 183 -395 228 -79 44 -143 85 -143
91 0 5 33 66 73 135 41 69 190 324 331 568 142 243 264 442 271 442 7 0 71
-27 141 -61z m-2431 -335 c382 -221 496 -291 492 -303 -2 -9 -104 -190 -227
-401 -123 -212 -266 -459 -318 -550 -53 -91 -97 -167 -99 -169 -4 -5 -27 6
-158 76 -49 27 -139 75 -200 107 -60 33 -128 69 -150 81 -22 12 -107 57 -188
100 -82 42 -151 83 -153 90 -5 13 22 82 388 980 49 121 94 232 100 248 5 15
11 27 13 27 2 0 227 -129 500 -286z m1020 -588 c198 -115 364 -212 370 -217 6
-6 5 -17 -4 -32 -12 -18 -519 -888 -602 -1032 -12 -22 -24 -41 -25 -43 -1 -2
-175 89 -385 202 -265 141 -384 209 -383 220 1 9 145 263 320 566 226 391 323
549 334 547 8 -2 177 -97 375 -211z m-2043 -550 c24 -13 162 -86 308 -164 349
-185 472 -251 478 -256 2 -3 -42 -85 -99 -183 -133 -230 -340 -587 -343 -591
-2 -1 -77 33 -168 77 -248 119 -394 189 -485 232 -46 21 -83 43 -83 48 0 9 99
258 242 606 38 94 77 189 86 213 9 23 17 42 19 42 1 0 22 -11 45 -24z"/>
<path d="M4375 13590 c-3 -5 9 -19 27 -30 56 -34 78 -22 35 18 -25 23 -52 29
-62 12z"/>
<path d="M3745 13080 c-3 -5 -2 -10 4 -10 5 0 13 5 16 10 3 6 2 10 -4 10 -5 0
-13 -4 -16 -10z"/>
<path d="M12120 11493 c-51 -19 -68 -85 -30 -123 45 -45 123 -13 123 51 0 46
-52 86 -93 72z"/>
<path d="M12792 10717 c-58 -62 11 -152 87 -113 46 24 54 67 20 110 -27 34
-77 36 -107 3z"/>
<path d="M5673 5538 c-12 -6 -27 -24 -34 -41 -15 -35 -32 0 197 -414 74 -133
134 -244 134 -246 0 -3 -58 -40 -129 -83 -148 -88 -166 -110 -138 -170 15 -30
21 -34 56 -34 31 0 64 15 161 75 67 41 123 75 125 75 7 0 344 -617 350 -642
15 -60 86 -82 128 -40 43 44 31 81 -121 356 -199 359 -225 407 -221 410 2 2
137 84 299 183 393 239 377 228 384 257 12 49 -23 96 -73 96 -12 0 -170 -91
-353 -202 -315 -191 -332 -200 -346 -182 -7 10 -83 145 -168 299 -85 153 -160
285 -166 291 -19 19 -60 24 -85 12z"/>
</g>
</svg>
